<?xml version="1.0" standalone="no"?>
<!DOCTYPE svg PUBLIC "-//W3C//DTD SVG 20010904//EN"
 "http://www.w3.org/TR/2001/REC-SVG-20010904/DTD/svg10.dtd">
<svg version="1.0" xmlns="http://www.w3.org/2000/svg"
 width="512.000000pt" height="512.000000pt" viewBox="0 0 512.000000 512.000000"
 preserveAspectRatio="xMidYMid meet">

<g transform="translate(0.000000,512.000000) scale(0.100000,-0.100000)"
fill="#000000" stroke="none">
<path d="M1510 4431 c-385 -85 -679 -367 -774 -743 -90 -352 9 -711 265 -967
132 -133 283 -219 468 -269 132 -35 353 -37 481 -5 237 60 436 191 582 383 62
80 140 240 167 341 42 152 42 376 1 527 -79 288 -268 517 -535 647 -156 77
-237 96 -420 101 -121 3 -166 0 -235 -15z m671 -1439 c-40 -78 -137 -150 -261
-194 -79 -28 -262 -36 -354 -14 -82 19 -177 63 -227 105 -35 29 -99 115 -99
133 0 4 216 8 480 8 l480 0 -19 -38z"/>
<path d="M3601 4439 c-284 -56 -531 -273 -616 -541 -98 -308 -15 -627 219
-846 335 -313 882 -277 1169 76 137 168 196 352 184 567 -10 153 -48 268 -131
393 -119 180 -302 305 -508 346 -82 17 -244 19 -317 5z m527 -1140 c-65 -116
-226 -187 -403 -176 -113 7 -176 26 -254 78 -53 35 -111 105 -111 132 0 4 178
7 396 7 l395 0 -23 -41z"/>
<path d="M2950 2747 c-41 -13 -106 -40 -145 -60 -82 -43 -190 -126 -178 -137
4 -4 37 -13 73 -19 86 -16 198 -55 285 -99 348 -174 596 -517 646 -895 l13
-97 166 0 c482 0 1028 83 1231 186 79 40 82 52 76 298 -5 227 -13 274 -67 392
-106 235 -356 426 -591 451 -52 5 -60 3 -102 -26 -69 -47 -192 -106 -282 -134
-126 -39 -219 -50 -373 -44 -201 8 -340 50 -513 153 -102 62 -124 65 -239 31z"/>
<path d="M746 2319 c-92 -23 -237 -89 -324 -148 -136 -92 -276 -263 -342 -419
-62 -145 -72 -212 -77 -488 -5 -238 -4 -253 15 -291 25 -48 44 -61 147 -100
342 -131 892 -203 1555 -203 460 0 840 32 1160 96 199 40 425 109 481 147 70
48 74 60 77 249 6 288 -19 455 -92 614 -64 138 -174 275 -299 371 -121 93
-309 173 -446 189 -59 6 -63 5 -115 -29 -364 -242 -806 -301 -1212 -161 -95
32 -227 98 -309 153 -70 48 -97 50 -219 20z"/>
</g>
</svg>
